<svg xmlns="http://www.w3.org/2000/svg" viewBox="0 0 2961 782">
<g fill="#000000">
<path d="M567 702V565H381V0H210V565H24V702Z" transform="translate(40,742) scale(1,-1)" />
<path d="M499 124H237L195 0H16L270 702H468L722 0H541ZM455 256 368 513 282 256Z" transform="translate(613,742) scale(1,-1)" />
<path d="M233 132H457V0H62V702H233Z" transform="translate(1332,742) scale(1,-1)" />
<path d="M233 132H457V0H62V702H233Z" transform="translate(1791,742) scale(1,-1)" />
<path d="M664 702 421 232V0H250V232L7 702H201L337 408L472 702Z" transform="translate(2250,742) scale(1,-1)" />
</g>
</svg>